<svg xmlns="http://www.w3.org/2000/svg" width="279" height="27" viewBox="0 0 279 27">
    <path fill="#009D8B" fill-rule="evenodd" d="M5.98 18.797V3.884H.208V.8h14.977v3.085H9.413v14.913H5.98zM20.187 6.07v12.727h-3.172V6.07h3.172zM16.73 2.547c0-2.442 3.744-2.442 3.744 0 0 2.443-3.744 2.443-3.744 0zm15.35 3.883l1.275-1.594 2.34 1.748-1.43 1.8c.988 1.105 1.352 2.365 1.352 3.754 0 1.568-.598 3.779-2.704 4.73 2.132 1.054 2.652 2.571 2.652 4.191 0 3.497-2.704 5.656-6.422 5.656-3.719 0-6.5-2.236-6.5-5.656h3.145c0 1.646 1.535 2.725 3.355 2.725s3.25-.977 3.25-2.725c0-1.748-1.664-2.545-3.25-2.545-4.005 0-6.5-2.417-6.5-6.376 0-3.96 2.911-6.428 6.5-6.428 1.014 0 2.054.128 2.938.72zm-2.937 2.134c-1.846 0-3.355 1.362-3.355 3.574 0 2.21 1.509 3.522 3.355 3.522 1.82 0 3.328-1.337 3.328-3.522 0-2.186-1.508-3.574-3.328-3.574zm21.461 5.013h-10.01c.207 1.569 1.585 2.7 3.822 2.7 1.17 0 2.704-.437 3.432-1.183l2.028 1.98c-1.352 1.388-3.562 2.057-5.512 2.057-4.42 0-7.047-2.7-7.047-6.762 0-3.857 2.652-6.633 6.813-6.633 4.29 0 6.968 2.622 6.474 7.841zm-9.959-2.596h6.917c-.208-1.646-1.508-2.469-3.328-2.469-1.717 0-3.12.823-3.589 2.469zm12.647-4.86h2.938l.234 1.466c.988-1.569 2.314-1.8 3.615-1.8 1.326 0 2.6.514 3.302 1.208l-1.43 2.726c-.65-.54-1.248-.823-2.289-.823-1.664 0-3.198.874-3.198 3.214v6.685h-3.172V6.12zm30.832 9.333v3.343H70.498V.799h13.625V4.09H73.904v4.14h9.855v3.162h-9.855v4.062h10.219zm3.962-12.572l3.172-.335v3.6h3.536v2.7h-3.562v5.476c0 1.208.676 1.8 1.664 1.8.494 0 1.066-.155 1.534-.386l.884 2.674c-.91.36-1.664.514-2.626.54-2.782.103-4.602-1.466-4.602-4.628V8.847h-2.392v-2.7h2.392V2.882zM97.403.799h3.173v7.045c1.144-1.466 2.548-1.903 4.004-1.903 3.64 0 5.252 2.443 5.252 6.17v6.686h-3.172v-6.66c0-2.313-1.222-3.29-2.912-3.29-1.872 0-3.172 1.568-3.172 3.47v6.48h-3.173V.799zm28.066 12.778h-10.01c.207 1.569 1.586 2.7 3.822 2.7 1.17 0 2.704-.437 3.432-1.183l2.028 1.98c-1.352 1.388-3.562 2.057-5.512 2.057-4.42 0-7.047-2.7-7.047-6.762 0-3.857 2.652-6.633 6.813-6.633 4.29 0 6.968 2.622 6.474 7.841zm-9.959-2.596h6.917c-.208-1.646-1.508-2.469-3.328-2.469-1.716 0-3.12.823-3.589 2.469zm12.647-4.86h2.938l.234 1.466c.988-1.569 2.315-1.8 3.615-1.8 1.326 0 2.6.514 3.302 1.208l-1.43 2.726c-.65-.54-1.248-.823-2.288-.823-1.664 0-3.199.874-3.199 3.214v6.685h-3.172V6.12zm24.244 7.456H142.39c.208 1.569 1.586 2.7 3.822 2.7 1.17 0 2.704-.437 3.433-1.183l2.028 1.98c-1.352 1.388-3.563 2.057-5.513 2.057-4.42 0-7.046-2.7-7.046-6.762 0-3.857 2.652-6.633 6.812-6.633 4.29 0 6.969 2.622 6.475 7.841zm-9.959-2.596h6.917c-.208-1.646-1.509-2.469-3.329-2.469-1.716 0-3.12.823-3.588 2.469zm12.725-4.86h3.172v6.634c0 1.928 1.066 3.393 3.094 3.393 1.95 0 3.276-1.62 3.276-3.548V6.121h3.147v12.701h-2.835l-.208-1.722c-1.326 1.285-2.548 1.902-4.342 1.902-3.068 0-5.304-2.288-5.304-6.222V6.121zm27.442 12.676h-3.173v-6.788c0-1.671-.884-3.188-2.626-3.188-1.716 0-2.73 1.517-2.73 3.188v6.788h-3.172V6.095h2.938l.234 1.543c.676-1.285 2.158-1.748 3.38-1.748 1.534 0 3.068.617 3.796 2.365 1.145-1.8 2.627-2.314 4.29-2.314 3.641 0 5.435 2.211 5.435 6.017v6.839h-3.172v-6.84c0-1.67-.702-3.085-2.418-3.085-1.716 0-2.782 1.466-2.782 3.137v6.788zM226.389.799l-6.552 17.998h-2.912l-2.263-5.657-1.924-5.682-1.898 5.734-2.21 5.605h-2.912L199.035.799h3.849l4.29 12.984 4.42-12.984h2.236l4.55 12.984L222.542.799h3.848zm10.02 7.07l.105-1.748h3.042v12.676h-2.99l-.156-1.852c-.728 1.492-2.73 2.212-4.16 2.237-3.797.026-6.605-2.288-6.605-6.736 0-4.37 2.938-6.66 6.683-6.633 1.716 0 3.354.797 4.082 2.057zm-3.795.746c-2.107 0-3.797 1.414-3.797 3.831s1.69 3.857 3.797 3.857c4.992 0 4.992-7.688 0-7.688zm9.864-7.79h3.146v17.972h-3.146V.825zm6.172 0h3.147v17.972h-3.147V.825zm18.887 12.752h-10.01c.208 1.569 1.586 2.7 3.822 2.7 1.17 0 2.704-.437 3.432-1.183l2.028 1.98c-1.352 1.388-3.562 2.057-5.512 2.057-4.42 0-7.047-2.7-7.047-6.762 0-3.857 2.653-6.633 6.813-6.633 4.29 0 6.968 2.622 6.474 7.841zm-9.958-2.596h6.916c-.208-1.646-1.508-2.469-3.328-2.469-1.716 0-3.12.823-3.588 2.469zm13.4-8.1l3.173-.334v3.6h3.536v2.7h-3.562v5.476c0 1.208.676 1.8 1.664 1.8.494 0 1.066-.155 1.534-.386l.884 2.674c-.91.36-1.664.514-2.626.54-2.782.103-4.603-1.466-4.603-4.628V8.847h-2.392v-2.7h2.392V2.882z"/>
</svg>
